HIERARCHY
ROOT Hips
{
	OFFSET 0.000000 71.427986 0.000000
	CHANNELS 6 Xposition Yposition Zposition Xrotation Yrotation Zrotation
	JOINT Pelvis
	{
		OFFSET 0.000000 0.000000 0.000000
		CHANNELS 3 Xrotation Yrotation Zrotation
		JOINT LeftUpLeg
		{
			OFFSET 6.797100 -2.508499 -1.318700
			CHANNELS 3 Xrotation Yrotation Zrotation
			JOINT LeftLeg
			{
				OFFSET 0.069008 -29.241863 0.690200
				CHANNELS 3 Xrotation Yrotation Zrotation
				JOINT LeftFoot
				{
					OFFSET -0.069008 -29.568123 -0.266800
					CHANNELS 3 Xrotation Yrotation Zrotation
					JOINT LeftToeBase
					{
						OFFSET 3.145500 -8.631000 16.059900
						CHANNELS 3 Xrotation Yrotation Zrotation
						End Site
						{
							OFFSET 0.000000 18.501587 0.000000
						}
					}
				}
			}
			JOINT Left_ShortSleeve
			{
				OFFSET 0.265923 -10.480953 1.153800
				CHANNELS 3 Xrotation Yrotation Zrotation
				End Site
				{
					OFFSET 1.725763 19.823879 0.000000
				}
			}
		}
		JOINT RightUpLeg
		{
			OFFSET -6.797100 -2.508499 -1.318700
			CHANNELS 3 Xrotation Yrotation Zrotation
			JOINT RightLeg
			{
				OFFSET -0.082453 -29.241932 0.688000
				CHANNELS 3 Xrotation Yrotation Zrotation
				JOINT RightFoot
				{
					OFFSET 0.082453 -29.568058 -0.264600
					CHANNELS 3 Xrotation Yrotation Zrotation
					JOINT RightToeBase
					{
						OFFSET -3.115300 -8.682800 16.113400
						CHANNELS 3 Xrotation Yrotation Zrotation
						End Site
						{
							OFFSET 0.000000 18.567114 0.000000
						}
					}
				}
			}
			JOINT Right_ShortSleeve
			{
				OFFSET -0.265923 -10.480953 1.153800
				CHANNELS 3 Xrotation Yrotation Zrotation
				End Site
				{
					OFFSET -1.725766 19.823910 0.000000
				}
			}
		}
	}
	JOINT Spine
	{
		OFFSET 0.000000 13.368103 0.470500
		CHANNELS 3 Xrotation Yrotation Zrotation
		JOINT Spine1
		{
			OFFSET 0.147000 13.837402 0.538800
			CHANNELS 3 Xrotation Yrotation Zrotation
			JOINT Spine2
			{
				OFFSET 0.168000 16.242897 -1.435500
				CHANNELS 3 Xrotation Yrotation Zrotation
				JOINT Neck
				{
					OFFSET 0.217200 18.631500 -1.679100
					CHANNELS 3 Xrotation Yrotation Zrotation
					JOINT Head
					{
						OFFSET 0.000000 6.599396 1.385900
						CHANNELS 3 Xrotation Yrotation Zrotation
						JOINT Hat
						{
							OFFSET -0.532200 27.220596 -10.096100
							CHANNELS 3 Xrotation Yrotation Zrotation
							End Site
							{
								OFFSET 0.000000 22.029861 0.000000
							}
						}
						JOINT HairD
						{
							OFFSET -10.777400 17.437393 -1.325900
							CHANNELS 3 Xrotation Yrotation Zrotation
							JOINT HairD1
							{
								OFFSET -3.290299 -11.051193 1.062200
								CHANNELS 3 Xrotation Yrotation Zrotation
								End Site
								{
									OFFSET 0.000000 11.579437 0.000000
								}
							}
						}
						JOINT HairB
						{
							OFFSET -10.777400 17.437393 1.467900
							CHANNELS 3 Xrotation Yrotation Zrotation
							JOINT HairB1
							{
								OFFSET -1.561200 -12.956299 3.590200
								CHANNELS 3 Xrotation Yrotation Zrotation
								End Site
								{
									OFFSET 0.000000 13.534866 0.000000
								}
							}
						}
						JOINT HairA
						{
							OFFSET 9.713100 17.437393 1.467900
							CHANNELS 3 Xrotation Yrotation Zrotation
							JOINT HairA1
							{
								OFFSET 1.561200 -12.956299 3.590200
								CHANNELS 3 Xrotation Yrotation Zrotation
								End Site
								{
									OFFSET 0.000000 13.534866 0.000000
								}
							}
						}
						JOINT HairC
						{
							OFFSET 9.713100 17.437393 -1.325900
							CHANNELS 3 Xrotation Yrotation Zrotation
							JOINT HairC1
							{
								OFFSET 3.290300 -11.051193 1.062200
								CHANNELS 3 Xrotation Yrotation Zrotation
								End Site
								{
									OFFSET 0.000000 11.579437 0.000000
								}
							}
						}
					}
				}
				JOINT LeftShoulder
				{
					OFFSET 5.101800 15.108002 -2.763700
					CHANNELS 3 Xrotation Yrotation Zrotation
					JOINT LeftArm
					{
						OFFSET 9.825497 2.506317 -1.597400
						CHANNELS 3 Xrotation Yrotation Zrotation
						JOINT LeftForeArm
						{
							OFFSET 21.966244 0.000000 0.000000
							CHANNELS 3 Xrotation Yrotation Zrotation
							JOINT LeftHand
							{
								OFFSET 33.879036 0.000000 0.000000
								CHANNELS 3 Xrotation Yrotation Zrotation
								JOINT LeftHandThumb1
								{
									OFFSET 6.715286 -2.359680 3.363841
									CHANNELS 3 Xrotation Yrotation Zrotation
									JOINT LeftHandThumb2
									{
										OFFSET 2.507072 -1.447464 1.447461
										CHANNELS 3 Xrotation Yrotation Zrotation
										JOINT LeftHandThumb3
										{
											OFFSET 2.898338 -1.673355 1.673357
											CHANNELS 3 Xrotation Yrotation Zrotation
											End Site
											{
												OFFSET -0.295959 3.727692 -0.131651
											}
										}
									}
								}
								JOINT LeftHandIndex1
								{
									OFFSET 14.190811 -0.254547 3.840278
									CHANNELS 3 Xrotation Yrotation Zrotation
									JOINT LeftHandIndex2
									{
										OFFSET 3.551727 0.000000 -0.000000
										CHANNELS 3 Xrotation Yrotation Zrotation
										JOINT LeftHandIndex3
										{
											OFFSET 2.894196 0.000000 0.000000
											CHANNELS 3 Xrotation Yrotation Zrotation
											End Site
											{
												OFFSET -1.000603 2.690872 0.366626
											}
										}
									}
								}
								JOINT LeftHandMiddle1
								{
									OFFSET 13.776489 0.000000 0.000000
									CHANNELS 3 Xrotation Yrotation Zrotation
									JOINT LeftHandMiddle2
									{
										OFFSET 3.438232 0.000000 0.000000
										CHANNELS 3 Xrotation Yrotation Zrotation
										JOINT LeftHandMiddle3
										{
											OFFSET 3.691551 0.000000 0.000000
											CHANNELS 3 Xrotation Yrotation Zrotation
											End Site
											{
												OFFSET -1.082298 3.499527 0.457670
											}
										}
									}
								}
								JOINT LeftHandRing1
								{
									OFFSET 13.966164 -0.268127 -3.067488
									CHANNELS 3 Xrotation Yrotation Zrotation
									JOINT LeftHandRing2
									{
										OFFSET 3.162567 0.000000 0.000000
										CHANNELS 3 Xrotation Yrotation Zrotation
										JOINT LeftHandRing3
										{
											OFFSET 3.324348 0.000000 0.000000
											CHANNELS 3 Xrotation Yrotation Zrotation
											End Site
											{
												OFFSET -0.861900 3.184998 0.405154
											}
										}
									}
								}
								JOINT LeftHandPinky1
								{
									OFFSET 13.131393 -0.168503 -5.746925
									CHANNELS 3 Xrotation Yrotation Zrotation
									JOINT LeftHandPinky2
									{
										OFFSET 2.849182 0.000000 0.000000
										CHANNELS 3 Xrotation Yrotation Zrotation
										JOINT LeftHandPinky3
										{
											OFFSET 2.805038 0.000000 0.000000
											CHANNELS 3 Xrotation Yrotation Zrotation
											End Site
											{
												OFFSET -0.882500 2.642609 0.325652
											}
										}
									}
								}
							}
							JOINT Left_Sleeve
							{
								OFFSET 6.592125 -0.646545 0.805568
								CHANNELS 3 Xrotation Yrotation Zrotation
								End Site
								{
									OFFSET -0.000179 20.275787 -0.000000
								}
							}
						}
					}
				}
				JOINT RightShoulder
				{
					OFFSET -5.731700 15.108002 -2.763700
					CHANNELS 3 Xrotation Yrotation Zrotation
					JOINT RightArm
					{
						OFFSET -9.825497 2.506317 -1.597400
						CHANNELS 3 Xrotation Yrotation Zrotation
						JOINT RightForeArm
						{
							OFFSET -21.966242 0.000000 0.000000
							CHANNELS 3 Xrotation Yrotation Zrotation
							JOINT RightHand
							{
								OFFSET -33.879032 0.000000 0.000000
								CHANNELS 3 Xrotation Yrotation Zrotation
								JOINT RightHandThumb1
								{
									OFFSET -6.715286 -2.359680 3.363841
									CHANNELS 3 Xrotation Yrotation Zrotation
									JOINT RightHandThumb2
									{
										OFFSET -2.507072 -1.447464 1.447461
										CHANNELS 3 Xrotation Yrotation Zrotation
										JOINT RightHandThumb3
										{
											OFFSET -2.898338 -1.673355 1.673357
											CHANNELS 3 Xrotation Yrotation Zrotation
											End Site
											{
												OFFSET 0.295959 3.727692 -0.131651
											}
										}
									}
								}
								JOINT RightHandIndex1
								{
									OFFSET -14.190811 -0.254547 3.840278
									CHANNELS 3 Xrotation Yrotation Zrotation
									JOINT RightHandIndex2
									{
										OFFSET -3.551727 0.000000 -0.000000
										CHANNELS 3 Xrotation Yrotation Zrotation
										JOINT RightHandIndex3
										{
											OFFSET -2.894196 0.000000 0.000000
											CHANNELS 3 Xrotation Yrotation Zrotation
											End Site
											{
												OFFSET 1.000603 2.690872 0.366626
											}
										}
									}
								}
								JOINT RightHandMiddle1
								{
									OFFSET -13.776489 0.000000 0.000000
									CHANNELS 3 Xrotation Yrotation Zrotation
									JOINT RightHandMiddle2
									{
										OFFSET -3.438232 0.000000 0.000000
										CHANNELS 3 Xrotation Yrotation Zrotation
										JOINT RightHandMiddle3
										{
											OFFSET -3.691551 0.000000 0.000000
											CHANNELS 3 Xrotation Yrotation Zrotation
											End Site
											{
												OFFSET 1.082298 3.499527 0.457670
											}
										}
									}
								}
								JOINT RightHandRing1
								{
									OFFSET -13.966164 -0.268127 -3.067488
									CHANNELS 3 Xrotation Yrotation Zrotation
									JOINT RightHandRing2
									{
										OFFSET -3.162567 0.000000 0.000000
										CHANNELS 3 Xrotation Yrotation Zrotation
										JOINT RightHandRing3
										{
											OFFSET -3.324348 0.000000 0.000000
											CHANNELS 3 Xrotation Yrotation Zrotation
											End Site
											{
												OFFSET 0.861900 3.184998 0.405154
											}
										}
									}
								}
								JOINT RightHandPinky1
								{
									OFFSET -13.131393 -0.168503 -5.746925
									CHANNELS 3 Xrotation Yrotation Zrotation
									JOINT RightHandPinky2
									{
										OFFSET -2.849182 0.000000 0.000000
										CHANNELS 3 Xrotation Yrotation Zrotation
										JOINT RightHandPinky3
										{
											OFFSET -2.805038 0.000000 0.000000
											CHANNELS 3 Xrotation Yrotation Zrotation
											End Site
											{
												OFFSET 0.882500 2.642609 0.325652
											}
										}
									}
								}
							}
							JOINT Right_Sleeve
							{
								OFFSET -6.592125 -0.646545 0.805568
								CHANNELS 3 Xrotation Yrotation Zrotation
								End Site
								{
									OFFSET 0.000179 20.275787 -0.000000
								}
							}
						}
					}
				}
				JOINT Bind_Right_JacketString
				{
					OFFSET -3.534800 11.969597 7.200700
					CHANNELS 3 Xrotation Yrotation Zrotation
					JOINT Bind_Right_JacketString1
					{
						OFFSET -0.319900 -6.102600 2.794100
						CHANNELS 3 Xrotation Yrotation Zrotation
						End Site
						{
							OFFSET 0.000000 6.719452 0.000000
						}
					}
				}
				JOINT Bind_Left_JacketString
				{
					OFFSET 2.904800 11.969597 7.200700
					CHANNELS 3 Xrotation Yrotation Zrotation
					JOINT Bind_Left_JacketString1
					{
						OFFSET 0.364800 -5.904503 3.186800
						CHANNELS 3 Xrotation Yrotation Zrotation
						End Site
						{
							OFFSET 0.000000 6.719513 0.000000
						}
					}
				}
				JOINT HairE
				{
					OFFSET 5.915200 17.612701 -11.592200
					CHANNELS 3 Xrotation Yrotation Zrotation
					JOINT HairE1
					{
						OFFSET 0.289200 -7.171898 -1.284500
						CHANNELS 3 Xrotation Yrotation Zrotation
						End Site
						{
							OFFSET 0.000000 7.291756 0.000000
						}
					}
				}
				JOINT HairF
				{
					OFFSET -0.864800 17.612701 -11.592200
					CHANNELS 3 Xrotation Yrotation Zrotation
					JOINT HairF1
					{
						OFFSET 0.000000 -14.087097 -2.127501
						CHANNELS 3 Xrotation Yrotation Zrotation
						End Site
						{
							OFFSET 0.000000 14.246841 0.000000
						}
					}
				}
				JOINT HairG
				{
					OFFSET -8.087700 17.612701 -11.592200
					CHANNELS 3 Xrotation Yrotation Zrotation
					JOINT HairG1
					{
						OFFSET -0.293600 -6.081398 -0.910100
						CHANNELS 3 Xrotation Yrotation Zrotation
						End Site
						{
							OFFSET 0.000000 6.156120 0.000000
						}
					}
				}
			}
		}
	}
	JOINT Pouch
	{
		OFFSET 0.000000 4.394501 10.847300
		CHANNELS 3 Xrotation Yrotation Zrotation
		End Site
		{
			OFFSET 0.000000 21.880577 0.000000
		}
	}
	JOINT Bag
	{
		OFFSET -13.229000 4.813004 -0.593300
		CHANNELS 3 Xrotation Yrotation Zrotation
		End Site
		{
			OFFSET 0.000000 21.880577 0.000000
		}
	}
	JOINT OccupyGuyFacialAnim_Joint
	{
		OFFSET 1.000000 -70.206398 -1.655000
		CHANNELS 3 Xrotation Yrotation Zrotation
		End Site
		{
			OFFSET 0.000000 21.880577 0.000000
		}
	}
}
MOTION
Frames: 4
Frame Time: 0.016667
0.165848 61.286552 0.395169 8.131913 -10.921647 3.173844 -0.000000 -0.000000 -0.000000 -51.197507 6.284490 19.575170 48.967238 3.064169 5.947916 -3.715308 1.613482 -17.700174 0.000000 0.000000 -0.000000 0.000000 -0.000001 -0.000000 -33.294444 -0.182571 -27.945806 52.798961 -0.553933 -1.385880 -22.380561 -5.823702 23.270738 0.000000 -0.000000 -0.000000 0.000005 -0.000001 0.000001 8.208462 1.678094 -1.554832 6.501512 1.669132 -0.600553 6.503125 1.665276 -0.587177 -1.740215 -0.081392 0.346733 -18.113896 -0.499811 1.304438 0.000000 0.000000 -0.000000 0.000000 0.000000 -0.000000 0.000000 0.000000 0.000000 0.000000 0.000000 -0.000000 0.000000 0.000000 -0.000000 0.000000 0.000000 -0.000000 0.000000 0.000000 -0.000000 0.000000 0.000000 -0.000000 0.000000 0.000000 -0.000000 2.609678 -14.773711 -9.661124 -25.061849 -6.032390 -45.944978 0.000039 -124.725716 0.000051 -67.570324 18.900134 22.799773 39.578733 -17.197298 -21.086423 11.236027 23.988446 2.901703 0.000001 0.000001 -0.000003 3.600031 6.051861 -61.463479 4.128147 6.308882 -66.366196 -0.000001 0.000001 -0.000002 2.451430 5.270990 -49.859916 3.793771 6.152674 -63.285924 0.000002 0.000001 -0.000003 2.452898 5.272205 -49.876046 3.792033 6.151819 -63.269784 -0.000003 -0.000001 -0.000004 7.187315 7.991498 -61.391769 4.144311 2.228358 -66.583191 -0.000001 -0.000000 0.000001 -0.000002 0.000001 -0.000001 1.602770 8.845883 9.965477 3.934427 4.254979 41.144387 -0.004059 89.361913 0.004254 32.702054 19.603355 -22.590443 29.376452 16.962601 20.541340 9.559542 -25.704468 -5.659316 0.000000 -0.000001 0.000002 2.155501 -5.036573 46.317149 4.033390 -6.309965 65.142895 0.000000 0.000001 -0.000005 1.448237 -4.252507 37.599710 3.476839 -6.022577 59.964785 0.000001 -0.000001 -0.000001 1.448230 -4.252475 37.599700 3.476832 -6.022601 59.964785 0.000000 0.000000 -0.000001 2.155489 -5.036566 46.317155 4.033408 -6.309990 65.142902 -0.000003 0.000000 0.000001 0.000002 0.000001 -0.000001 -0.000001 0.000000 -0.000000 -0.000001 0.000000 0.000000 -0.000001 0.000000 -0.000000 -0.000001 0.000000 -0.000000 -0.000001 0.000000 -0.000000 -0.000001 0.000000 -0.000000 -0.000001 0.000000 -0.000000 -0.000001 0.000000 -0.000000 -0.000001 0.000000 -0.000000 -0.000001 0.000000 -0.000000 -0.000000 -0.000000 -0.000000 -0.000000 -0.000000 -0.000000 -0.000000 -0.000000 -0.000000 
0.216479 61.325287 0.443081 8.158290 -10.903041 3.103391 0.000001 -0.000001 0.000000 -51.209381 6.334960 19.545218 48.954841 3.078936 6.027197 -3.758529 1.616213 -17.665574 0.000000 0.000000 -0.000000 0.000004 -0.000001 -0.000000 -33.137957 -0.243850 -27.927779 52.521211 -0.599985 -1.344980 -22.226125 -5.807570 23.336453 0.000000 0.000000 -0.000000 -0.000000 0.000000 -0.000000 8.185267 1.670398 -1.578337 6.485268 1.665930 -0.610207 6.486868 1.662227 -0.596724 -1.712120 -0.092269 0.384982 -18.110405 -0.529393 1.344542 0.000000 0.000000 0.000000 0.000000 0.000000 0.000000 0.000000 0.000000 0.000000 0.000000 0.000000 0.000000 -0.000001 0.000000 -0.000000 0.000000 0.000000 0.000000 -0.000001 0.000000 -0.000000 0.000000 0.000000 0.000000 0.000000 0.000000 0.000000 2.607220 -14.764987 -9.614780 -25.050240 -6.005730 -46.040874 0.000022 -124.877032 0.000026 -67.329683 18.877822 22.729331 39.578733 -17.197301 -21.086428 11.236027 23.988444 2.901707 0.000001 0.000001 -0.000003 3.600031 6.051864 -61.463486 4.128147 6.308880 -66.366189 0.000003 -0.000001 -0.000000 2.451432 5.270991 -49.859916 3.793767 6.152676 -63.285931 -0.000002 0.000001 -0.000003 2.452896 5.272207 -49.876053 3.792038 6.151816 -63.269791 -0.000001 -0.000002 -0.000004 7.187314 7.991501 -61.391776 4.144311 2.228356 -66.583198 -0.000001 -0.000000 -0.000002 -0.000001 -0.000001 0.000003 1.606110 8.884875 9.946589 4.076258 4.257998 41.187663 0.001313 89.427086 -0.001553 32.911847 19.509597 -22.720515 29.376456 16.962601 20.541340 9.559546 -25.704459 -5.659317 -0.000000 -0.000001 0.000000 2.155499 -5.036573 46.317149 4.033391 -6.309961 65.142895 -0.000003 -0.000001 -0.000002 1.448240 -4.252507 37.599706 3.476843 -6.022577 59.964785 -0.000001 -0.000004 0.000000 1.448229 -4.252474 37.599700 3.476831 -6.022601 59.964785 -0.000000 0.000002 -0.000001 2.155490 -5.036567 46.317155 4.033406 -6.309990 65.142902 -0.000000 0.000004 -0.000001 0.000002 0.000001 0.000000 -0.000000 -0.000000 0.000000 -0.000000 -0.000000 0.000000 -0.000000 -0.000000 0.000000 -0.000000 -0.000000 0.000000 -0.000000 -0.000000 0.000000 -0.000000 -0.000000 0.000000 -0.000000 -0.000000 0.000000 -0.000000 -0.000000 0.000000 -0.000000 -0.000000 0.000000 -0.000000 -0.000000 0.000000 0.000001 -0.000001 0.000000 0.000001 -0.000001 0.000000 0.000001 -0.000001 0.000000 
0.263633 61.348785 0.482309 8.217105 -10.908135 3.025331 -0.000000 -0.000000 0.000000 -51.273960 6.319398 19.552497 48.998633 3.137222 6.060467 -3.808166 1.620494 -17.635029 -0.000000 0.000001 -0.000000 0.000001 0.000001 0.000000 -33.084927 -0.339721 -27.895394 52.301419 -0.573867 -1.346725 -22.087918 -5.792690 23.393447 -0.000000 -0.000000 0.000000 0.000001 0.000000 -0.000002 8.162485 1.667366 -1.606858 6.469512 1.666601 -0.622083 6.471172 1.662710 -0.608366 -1.660625 -0.094397 0.408574 -18.088767 -0.528533 1.378603 0.000001 0.000000 -0.000000 0.000001 0.000000 -0.000000 0.000001 0.000000 -0.000000 0.000001 0.000000 -0.000000 -0.000000 0.000000 -0.000000 0.000001 0.000000 -0.000000 -0.000000 0.000000 -0.000000 0.000001 0.000000 -0.000000 0.000001 0.000000 -0.000000 2.606482 -14.776923 -9.549425 -25.079253 -5.936105 -46.237461 0.000002 -124.947601 -0.000010 -67.140404 18.934364 22.684764 39.578737 -17.197294 -21.086430 11.236027 23.988444 2.901707 0.000001 -0.000000 -0.000004 3.600034 6.051864 -61.463479 4.128148 6.308881 -66.366189 0.000001 -0.000000 0.000003 2.451433 5.270992 -49.859916 3.793772 6.152672 -63.285931 0.000002 0.000001 -0.000003 2.452900 5.272206 -49.876049 3.792032 6.151818 -63.269784 0.000000 0.000003 0.000001 7.187319 7.991503 -61.391769 4.144309 2.228358 -66.583191 -0.000004 0.000002 0.000003 0.000002 -0.000005 -0.000004 1.612935 8.972300 9.892405 4.280591 4.276499 41.166599 0.009018 89.494241 -0.008597 33.037516 19.369476 -22.853905 29.376446 16.962606 20.541336 9.559542 -25.704464 -5.659319 -0.000001 -0.000001 0.000000 2.155500 -5.036569 46.317149 4.033388 -6.309963 65.142895 -0.000000 -0.000001 0.000000 1.448240 -4.252507 37.599710 3.476840 -6.022577 59.964792 0.000002 -0.000001 -0.000001 1.448231 -4.252474 37.599700 3.476831 -6.022603 59.964792 -0.000000 -0.000000 -0.000001 2.155493 -5.036567 46.317159 4.033405 -6.309990 65.142895 0.000002 0.000001 0.000001 0.000001 -0.000003 0.000000 -0.000000 0.000000 -0.000000 -0.000000 0.000000 -0.000000 -0.000000 0.000000 -0.000000 -0.000000 0.000000 -0.000000 -0.000000 0.000000 -0.000000 -0.000000 0.000000 -0.000000 -0.000000 0.000000 -0.000000 -0.000000 0.000000 -0.000000 -0.000000 0.000000 -0.000000 -0.000000 0.000000 -0.000000 -0.000000 -0.000000 0.000000 -0.000000 -0.000000 0.000000 -0.000000 -0.000000 0.000000 
0.306957 61.361763 0.517208 8.265226 -10.938437 2.977346 0.000000 0.000000 -0.000000 -51.302473 6.238934 19.562901 49.071293 3.231701 6.018895 -3.876672 1.627345 -17.614667 -0.000000 -0.000000 -0.000000 -0.000002 0.000000 -0.000000 -33.055459 -0.387473 -27.880556 52.140551 -0.533255 -1.351998 -21.976724 -5.782288 23.446417 0.000000 -0.000003 0.000000 -0.000001 0.000000 -0.000001 8.140978 1.667631 -1.637551 6.454647 1.669953 -0.635076 6.456431 1.665760 -0.621080 -1.598636 -0.092581 0.422500 -18.056068 -0.517751 1.411531 -0.000001 -0.000000 -0.000000 -0.000001 -0.000000 -0.000000 -0.000001 -0.000000 -0.000000 -0.000001 -0.000000 -0.000000 -0.000001 0.000000 -0.000000 -0.000001 -0.000000 -0.000000 -0.000001 0.000000 -0.000000 -0.000001 -0.000000 -0.000000 -0.000001 -0.000000 -0.000000 2.606922 -14.801035 -9.475213 -25.130218 -5.847830 -46.486425 0.000020 -124.971234 0.000018 -66.982026 19.038370 22.658738 39.578733 -17.197296 -21.086423 11.236024 23.988439 2.901706 -0.000000 0.000001 -0.000001 3.600032 6.051861 -61.463479 4.128152 6.308884 -66.366196 0.000002 0.000000 -0.000004 2.451431 5.270990 -49.859913 3.793770 6.152676 -63.285931 0.000002 -0.000001 0.000006 2.452897 5.272204 -49.876046 3.792036 6.151819 -63.269784 -0.000000 0.000001 -0.000004 7.187313 7.991498 -61.391769 4.144313 2.228357 -66.583198 -0.000001 0.000001 0.000001 0.000002 -0.000001 -0.000003 1.621826 9.085368 9.820731 4.518115 4.299217 41.105222 -0.005645 89.563068 0.007434 33.107221 19.210744 -22.984659 29.376449 16.962601 20.541338 9.559541 -25.704466 -5.659319 -0.000001 -0.000001 -0.000000 2.155499 -5.036569 46.317155 4.033392 -6.309962 65.142895 -0.000004 0.000001 -0.000005 1.448237 -4.252509 37.599710 3.476839 -6.022577 59.964792 -0.000000 0.000001 -0.000001 1.448227 -4.252474 37.599700 3.476834 -6.022600 59.964785 -0.000002 -0.000002 -0.000001 2.155490 -5.036567 46.317155 4.033409 -6.309991 65.142902 -0.000001 0.000002 0.000001 -0.000001 0.000001 0.000001 0.000000 0.000000 -0.000000 0.000000 0.000000 -0.000000 0.000000 0.000000 -0.000000 0.000000 0.000000 -0.000000 0.000000 0.000000 -0.000000 0.000000 0.000000 -0.000000 0.000000 0.000000 -0.000000 0.000000 0.000000 -0.000000 0.000000 0.000000 -0.000000 0.000000 0.000000 -0.000000 0.000000 0.000000 -0.000000 0.000000 0.000000 -0.000000 0.000000 0.000000 -0.000000 
